# xmcd
#
# Track frame offsets:
#	150
#	18827
#	32765
#	50082
#	78680
#	91560
#	106250
#	121652
#	144012
#	159852
#	178157
#	199280
#	215235
#	230750
#
# Disc length: 3304 seconds
#
# Revision: 0
# Processed by: cddbd v1.5PL3 Copyright (c) Steve Scherf et al.
# Submitted via: audiograbber 1.83.01
#
DISCID=b50ce60e
DTITLE=Lee Sappho - Big Girl's Blues
DYEAR=1996
DGENRE=Blues
TTITLE0=You're No Good For Me (Babe)
TTITLE1=Mister Mean
TTITLE2=Glad To Be Alive
TTITLE3=Mating Call
TTITLE4=Stop Sniffin' 'Round My Patch
TTITLE5=Help Me
TTITLE6=Big Girl's Blues
TTITLE7=Too Many Nights
TTITLE8=It's None Of My Business (What You Think About Me)
TTITLE9=Change Room Blues
TTITLE10=I Met A Stranger
TTITLE11=Big Bad Momma
TTITLE12=Nobody Loves Me (Like My Old Man)
TTITLE13=If You See My Rooster (Please Run Him Home)
EXTD=
EXTT0=
EXTT1=
EXTT2=
EXTT3=
EXTT4=
EXTT5=
EXTT6=
EXTT7=
EXTT8=
EXTT9=
EXTT10=
EXTT11=
EXTT12=
EXTT13=
PLAYORDER=
